<svg width="136" height="136" viewBox="0 0 136 136" fill="none" xmlns="http://www.w3.org/2000/svg">
<circle cx="68" cy="68" r="68" fill="url(#paint0_linear)"/>
<g style="mix-blend-mode:overlay">
<path d="M39.8261 69.565H33.5652C32.7012 69.565 32 68.8654 32 67.9998C32 67.1342 32.7012 66.4346 33.5652 66.4346H39.8261C40.6901 66.4346 41.3913 67.1342 41.3913 67.9998C41.3913 68.8654 40.6901 69.565 39.8261 69.565Z" fill="white"/>
<path d="M48.078 49.6433C47.6773 49.6433 47.2766 49.4899 46.9714 49.1847L42.5449 44.7567C41.9329 44.1447 41.9329 43.1555 42.5449 42.5435C43.1569 41.9315 44.1462 41.9315 44.7582 42.5435L49.1846 46.9715C49.7966 47.5835 49.7966 48.5727 49.1846 49.1847C48.8794 49.4915 48.4787 49.6433 48.078 49.6433Z" fill="white"/>
<path d="M68 41.3913C67.136 41.3913 66.4348 40.6917 66.4348 39.8261V33.5652C66.4348 32.6997 67.136 32 68 32C68.864 32 69.5652 32.6997 69.5652 33.5652V39.8261C69.5652 40.6917 68.864 41.3913 68 41.3913Z" fill="white"/>
<path d="M87.9221 49.6433C87.5214 49.6433 87.1207 49.4899 86.8154 49.1847C86.2034 48.5727 86.2034 47.5835 86.8154 46.9715L91.2419 42.5435C91.8523 41.9315 92.8431 41.9315 93.4551 42.5435C94.0671 43.1555 94.0671 44.1447 93.4551 44.7567L89.0287 49.1847C88.7234 49.4915 88.3228 49.6433 87.9221 49.6433Z" fill="white"/>
<path d="M102.435 69.565H96.1739C95.3099 69.565 94.6086 68.8654 94.6086 67.9998C94.6086 67.1342 95.3099 66.4346 96.1739 66.4346H102.435C103.299 66.4346 104 67.1342 104 67.9998C104 68.8654 103.299 69.565 102.435 69.565Z" fill="white"/>
<path d="M67.9999 47.6523C56.7804 47.6523 47.6521 56.7807 47.6521 68.0002C47.6521 76.2176 52.6404 83.621 60.1738 86.764V96.1741H75.826V86.764C83.3594 83.621 88.3478 76.2176 88.3478 68.0002C88.3478 56.7807 79.2194 47.6523 67.9999 47.6523Z" fill="white"/>
<path d="M64.8695 104H71.1304C73.7239 104 75.826 101.898 75.826 99.3042H60.1738C60.1738 101.898 62.2759 104 64.8695 104Z" fill="white"/>
</g>
<defs>
<linearGradient id="paint0_linear" x1="56.5" y1="18.5" x2="151.6" y2="167.6" gradientUnits="userSpaceOnUse">
<stop stop-color="#FEB665"/>
<stop offset="1" stop-color="#F66EB4"/>
</linearGradient>
</defs>
</svg>
